<svg xmlns="http://www.w3.org/2000/svg" width="100" height="100" viewBox="0 0 100 100">
	<path d="M19.7 32.5l-8.6-14.3 7.1-7.1 14.3 8.6c2.6-1.5 5.5-2.7 8.5-3.5L45 0h10l4 16.2c3 .8 5.9 2 8.5 3.5l14.3-8.6 7.1 7.1-8.6 14.3c1.5 2.6 2.7 5.5 3.5 8.5l16.2 4v10l-16.2 4c-.8 3-2 5.9-3.5 8.5l8.6 14.3-7.1 7.1-14.3-8.6C64.9 81.8 62 83 59 83.8L55 100H45l-4-16.2c-3-.8-5.9-2-8.5-3.5l-14.3 8.6-7.1-7.1 8.6-14.3C18.2 64.9 17 62 16.2 59L0 55V45l16.2-4c.8-3 2-5.9 3.5-8.5zM50 65c8.284 0 15-6.716 15-15s-6.716-15-15-15c-8.284 0-15 6.716-15 15s6.716 15 15 15z"/>
</svg>