<svg xmlns="http://www.w3.org/2000/svg" width="100" height="100" viewBox="0 0 100 100">
	<path d="M76.5 74.45L90.35 88.3c.899.904 1.454 2.15 1.454 3.525s-.555 2.621-1.454 3.525c-.904.899-2.15 1.454-3.525 1.454s-2.621-.555-3.525-1.454l-12.95-12.9c-4.126 3.827-9.361 6.513-15.171 7.524L55 90V45.2c0-2.761-2.239-5-5-5s-5 2.239-5 5V90c-5.99-1.034-11.225-3.721-15.369-7.567l.019.017-12.95 12.9c-.904.899-2.15 1.454-3.525 1.454s-2.621-.555-3.525-1.454c-.899-.904-1.454-2.15-1.454-3.525s.555-2.621 1.454-3.525L23.5 74.45c-1.489-2.733-2.591-5.913-3.128-9.281L20.35 65H5c-2.761 0-5-2.239-5-5s2.239-5 5-5h15V42.05L4.65 26.7c-.899-.904-1.454-2.15-1.454-3.525s.555-2.621 1.454-3.525c.904-.899 2.15-1.454 3.525-1.454s2.621.555 3.525 1.454l10.5 10.5h55.6l10.5-10.5c.904-.899 2.15-1.454 3.525-1.454s2.621.555 3.525 1.454c.899.904 1.454 2.15 1.454 3.525s-.555 2.621-1.454 3.525L80 42.05V55h15c2.761 0 5 2.239 5 5s-2.239 5-5 5H79.65c-.5 3.35-1.6 6.55-3.15 9.45zM75 25H25C25 11.193 36.193 0 50 0s25 11.193 25 25z"/>
</svg>