<svg xmlns="http://www.w3.org/2000/svg" width="100" height="100" viewBox="0 0 100 100">
	<path d="M14.65 85.35C5.232 76.245-.614 63.498-.614 49.386c0-27.614 22.386-50 50-50 14.113 0 26.86 5.847 35.951 15.25l.013.014c8.684 8.982 14.036 21.234 14.036 34.736 0 27.614-22.386 50-50 50-13.502 0-25.753-5.351-34.75-14.049l.014.013zM78.3 78.3c7.243-7.243 11.722-17.248 11.722-28.3C90.022 27.896 72.103 9.978 50 9.978c-11.052 0-21.057 4.48-28.3 11.722C14.457 28.943 9.978 38.948 9.978 50c0 22.104 17.919 40.022 40.022 40.022 11.052 0 21.057-4.48 28.3-11.722zM35 30l40 20-40 20V30z"/>
</svg>