<svg version="1.1" xmlns="http://www.w3.org/2000/svg" width="100" height="100" viewBox="0 0 100 100">
<title>generation</title>
<path d="M14.65 85.35c-9.418-9.105-15.264-21.852-15.264-35.964 0-27.614 22.386-50 50-50 14.113 0 26.86 5.847 35.951 15.25l0.013 0.014c8.684 8.982 14.036 21.234 14.036 34.736 0 27.614-22.386 50-50 50-13.502 0-25.753-5.351-34.75-14.049l0.014 0.013zM78.3 78.3c7.243-7.243 11.722-17.248 11.722-28.3 0-22.104-17.919-40.022-40.022-40.022-11.052 0-21.057 4.48-28.3 11.722v0c-7.243 7.243-11.722 17.248-11.722 28.3 0 22.104 17.919 40.022 40.022 40.022 11.052 0 21.057-4.48 28.3-11.722v0zM35 30l40 20-40 20v-40z"></path>
</svg>
