<svg version="1.1" xmlns="http://www.w3.org/2000/svg" width="100" height="100" viewBox="0 0 100 100">
<title>plugins</title>
<path d="M100 70v20c0 5.523-4.477 10-10 10v0h-20v-10c0-5.523-4.477-10-10-10v0c-5.523 0-10 4.477-10 10v0 10h-20c-5.523 0-10-4.477-10-10v0-20h-10c-5.523 0-10-4.477-10-10v0c0-5.523 4.477-10 10-10v0h10v-20c0-5.5 4.5-10 10-10h20v-10c0-5.523 4.477-10 10-10v0c5.523 0 10 4.477 10 10v0 10h20c5.523 0 10 4.477 10 10v0 20h-10c-5.523 0-10 4.477-10 10v0c0 5.523 4.477 10 10 10v0h10z"></path>
</svg>
